<svg height="426pt" viewBox="0 -116 426 425" width="426pt" xmlns="http://www.w3.org/2000/svg"><path fill="#133337" d="m372 33.5c0-18.226562-14.773438-33-33-33h-306c-18.226562 0-33 14.773438-33 33v127c0 18.226562 14.773438 33 33 33h306c18.226562 0 33-14.773438 33-33zm-291 92.101562c0 3.863282-3.132812 7-7 7s-7-3.136718-7-7v-58.203124c0-3.863282 3.132812-7 7-7s7 3.136718 7 7zm68 0c0 3.863282-3.132812 7-7 7s-7-3.136718-7-7v-58.203124c0-3.863282 3.132812-7 7-7s7 3.136718 7 7zm68 0c0 3.863282-3.132812 7-7 7s-7-3.136718-7-7v-58.203124c0-3.863282 3.132812-7 7-7s7 3.136718 7 7zm68 0c0 3.863282-3.132812 7-7 7s-7-3.136718-7-7v-58.203124c0-3.863282 3.132812-7 7-7s7 3.136718 7 7zm0 0"/><path fill="#133337" d="m413.5 52.5h-27.5v88h27.5c6.890625 0 12.5-5.128906 12.5-12.019531v-63.960938c0-6.890625-5.605469-12.019531-12.5-12.019531zm0 0"/></svg>